<svg width="32" height="32" viewBox="0 0 32 32" fill="none" xmlns="http://www.w3.org/2000/svg">
<g clip-path="url(#clip0_44_47)">
<path d="M15.9999 0.640015C7.51669 0.640015 0.639893 7.51682 0.639893 16C0.639893 24.4832 7.51669 31.36 15.9999 31.36C24.4831 31.36 31.3599 24.4832 31.3599 16C31.3599 7.51682 24.4831 0.640015 15.9999 0.640015ZM17.0511 19.64C16.0655 19.5648 15.6527 19.0768 14.8815 18.6096C14.4575 20.8352 13.9391 22.9696 12.4031 24.0848C11.9279 20.7184 13.0975 18.1936 13.6415 15.5104C12.7151 13.9504 13.7519 10.8128 15.7071 11.584C18.1119 12.5376 13.6239 17.384 16.6367 17.9904C19.7823 18.6208 21.0671 12.5312 19.1167 10.5536C16.2975 7.69442 10.9135 10.488 11.5759 14.5808C11.7359 15.5808 12.7711 15.8848 11.9887 17.2656C10.1855 16.8656 9.64629 15.4432 9.71669 13.5472C9.82709 10.4432 12.5055 8.26881 15.1903 7.96961C18.5871 7.59201 21.7743 9.21601 22.2159 12.4128C22.7103 16.0192 20.6815 19.9216 17.0511 19.64Z" fill="black"/>
</g>
<defs>
<clipPath id="clip0_44_47">
<rect width="32" height="32" fill="white"/>
</clipPath>
</defs>
</svg>
